<?xml version="1.0" encoding="utf-8"?>
<!-- Generator: Adobe Illustrator 24.0.3, SVG Export Plug-In . SVG Version: 6.00 Build 0)  -->
<svg version="1.1" id="Lager_1" xmlns="http://www.w3.org/2000/svg" xmlns:xlink="http://www.w3.org/1999/xlink" x="0px" y="0px"
	 viewBox="0 0 472.5 66.3" style="enable-background:new 0 0 472.5 66.3;" xml:space="preserve">
<style type="text/css">
	.st0{fill:#5D5958;}
	.st1{fill:#F3994E;}
	.st2{fill:#FFFFFF;}
</style>
<g>
	<path class="st0" d="M98.6,29.3c11.1,0.8,13.9,2.2,13.9,10.8c0,6.2,0.3,12.3-16.3,12.3c-9.2,0-15.5-0.2-15.9-11.2
		c0-0.7,0.5-1.3,1.2-1.3h7.2c0.6,0,1.2,0.5,1.2,1.1c0.3,2.9,1.8,3.2,6.3,3.2c4.7,0,6.3-0.3,6.3-3.5c0-3.3-0.6-3.2-5.3-3.5L95,37.1
		c-9.3-0.6-14.7-0.6-14.7-11.4c0-10.8,6.1-11.5,15.9-11.5c8.2,0,15.2,0.1,15.2,10.5v0.4c0,0.7-0.5,1.2-1.2,1.2H103
		c-0.6,0-1.1-0.4-1.2-1c-0.3-2.8-2-2.8-5.6-2.8c-5.4,0-5.9,1.1-5.9,3.2c0,3,1.5,3.1,4.1,3.3L98.6,29.3z"/>
	<path class="st0" d="M161.2,14.6h7.6c0.8,0,1.3,0.7,1.2,1.5l-7.8,35.1c-0.1,0.5-0.6,0.9-1.2,0.9h-12.5c-0.6,0-1.1-0.4-1.2-0.9
		l-4.9-22.6H142l-5.2,22.6c-0.1,0.5-0.6,0.9-1.2,0.9h-12.4c-0.6,0-1.1-0.4-1.2-0.9l-7.6-35.1c-0.2-0.7,0.4-1.5,1.2-1.5h7.7
		c0.6,0,1.1,0.4,1.2,1l5.2,27.9h0.4l6.8-28c0.1-0.5,0.6-0.9,1.2-0.9h8.5c0.6,0,1,0.4,1.2,0.9l6.5,28h0.4l5.5-27.9
		C160.1,15,160.6,14.6,161.2,14.6z"/>
	<path class="st0" d="M184.4,29.7H198c0.7,0,1.2,0.5,1.2,1.2v4.6c0,0.7-0.5,1.2-1.2,1.2h-13.6c-0.7,0-1.2,0.5-1.2,1.2v4.9
		c0,0.7,0.5,1.2,1.2,1.2h15c0.7,0,1.2,0.5,1.2,1.2v5.8c0,0.7-0.5,1.2-1.2,1.2h-25c-0.7,0-1.2-0.5-1.2-1.2V15.8
		c0-0.7,0.5-1.2,1.2-1.2h24.7c0.7,0,1.2,0.5,1.2,1.2v5.8c0,0.7-0.5,1.2-1.2,1.2h-14.7c-0.7,0-1.2,0.5-1.2,1.2v4.5
		C183.2,29.1,183.8,29.7,184.4,29.7z"/>
	<path class="st1" d="M230.7,27.2c-0.7,0-1.2-0.5-1.2-1.2v-0.9c0-4.4-1.7-4.7-8-4.7c-7.3,0-8.5,1.2-8.5,8.6v8.3c0.1,7.5,1,9,8.5,9
		c5.8,0,8.4-0.2,8.4-5.6v-0.9c0-0.7,0.5-1.2,1.2-1.2h4.8c0.7,0,1.2,0.5,1.2,1.2v1.3c0.2,11.3-6.3,10.9-15.6,11.3
		c-13.2,0.5-15.6-3.9-15.7-14.8V29c0-12,4.7-14.7,15.7-14.7c9.4,0,14.7,0,15.2,10.8V26c0,0.7-0.5,1.2-1.2,1.2H230.7z"/>
	<path class="st1" d="M250.5,46h15.1c0.7,0,1.2,0.5,1.2,1.2v3.8c0,0.7-0.5,1.2-1.2,1.2h-22.3c-0.7,0-1.2-0.5-1.2-1.2V15.8
		c0-0.7,0.5-1.2,1.2-1.2h4.8c0.7,0,1.2,0.5,1.2,1.2v29C249.3,45.5,249.8,46,250.5,46z"/>
	<path class="st1" d="M300.8,28v10.1c0,12-4.7,14.3-16,14.3c-11.6,0-15.9-2-15.9-14.3V28c0-11.7,4-13.7,15.9-13.7
		C295.6,14.3,300.8,16,300.8,28z M276.2,28v10.1c0,7.5,1.5,8.2,8.7,8.2c6.6,0,8.8-0.9,8.8-8.2V28c0.2-7.1-2.4-7.6-8.8-7.6
		C277.1,20.5,276.3,22.1,276.2,28z"/>
	<path class="st1" d="M329.6,27.2c-0.7,0-1.2-0.5-1.2-1.2v-0.9c0-4.4-1.7-4.7-8-4.7c-7.3,0-8.5,1.2-8.5,8.6v8.3c0.1,7.5,1,9,8.5,9
		c5.8,0,8.4-0.2,8.4-5.6v-0.9c0-0.7,0.5-1.2,1.2-1.2h4.8c0.7,0,1.2,0.5,1.2,1.2v1.3c0.2,11.3-6.3,10.9-15.6,11.3
		c-13.2,0.5-15.6-3.9-15.7-14.8V29c0-12,4.7-14.7,15.7-14.7c9.4,0,14.7,0,15.2,10.8V26c0,0.7-0.5,1.2-1.2,1.2H329.6z"/>
	<path class="st1" d="M349.3,29.9h1.6c0.4,0,0.7-0.2,0.9-0.4l11.8-14.4c0.2-0.3,0.6-0.4,0.9-0.4h5.7c1,0,1.6,1.2,0.9,2l-12.9,15.6
		c-0.4,0.5-0.4,1.1,0,1.6l14.4,16.5c0.7,0.8,0.1,2-0.9,2h-5.9c-0.3,0-0.7-0.2-0.9-0.4l-13.1-15.2c-0.2-0.3-0.6-0.4-0.9-0.4h-1.6
		c-0.7,0-1.2,0.5-1.2,1.2v13.7c0,0.7-0.5,1.2-1.2,1.2h-4.8c-0.7,0-1.2-0.5-1.2-1.2V15.8c0-0.7,0.5-1.2,1.2-1.2h4.8
		c0.7,0,1.2,0.5,1.2,1.2v12.9C348.1,29.4,348.7,29.9,349.3,29.9z"/>
	<path class="st1" d="M384.6,30.1h15.2c0.7,0,1.2,0.5,1.2,1.2v3.5c0,0.7-0.5,1.2-1.2,1.2h-15.2c-0.7,0-1.2,0.5-1.2,1.2v7.6
		c0,0.7,0.5,1.2,1.2,1.2h16.3c0.7,0,1.2,0.5,1.2,1.2v3.8c0,0.7-0.5,1.2-1.2,1.2h-23.5c-0.7,0-1.2-0.5-1.2-1.2V15.8
		c0-0.7,0.5-1.2,1.2-1.2h23.3c0.7,0,1.2,0.5,1.2,1.2v3.8c0,0.7-0.5,1.2-1.2,1.2h-16.1c-0.7,0-1.2,0.5-1.2,1.2v7
		C383.4,29.6,383.9,30.1,384.6,30.1z"/>
	<path class="st1" d="M414.6,40.9v10c0,0.7-0.5,1.2-1.2,1.2h-4.8c-0.7,0-1.2-0.5-1.2-1.2V15.8c0-0.7,0.5-1.2,1.2-1.2h18
		c8.2,0.2,11.4,2.8,11.4,11.3c0,5.6-0.3,9.6-6.7,10.6v0.2c5.1,0.5,6.4,3.2,6.4,8.5v5.8c0,0.7-0.5,1.2-1.2,1.2h-4.8
		c-0.7,0-1.2-0.5-1.2-1.2v-5.8c0-3.2-1.3-5.4-4.8-5.4h-9.9C415.1,39.7,414.6,40.3,414.6,40.9z M424.1,33.6c5.3,0,6.6-1.1,6.6-6.6
		c0-5.3-1-6.3-6.1-6.3h-8.8c-0.7,0-1.2,0.5-1.2,1.2v10.4c0,0.7,0.5,1.2,1.2,1.2H424.1z"/>
	<path class="st1" d="M448.1,40.2c0.7,0,1.2,0.5,1.2,1.2v0.6c0,4.3,1.9,4.6,8.5,4.6c6.6,0,7.5-1.2,7.5-5.6c0-5.4-2.9-4.7-8.5-5
		c-8.1-0.5-14.5-0.2-14.5-11.1c0-10.3,6.5-10.6,15.5-10.6c7.7,0,13.9,0.2,13.9,10.1v0c0,0.7-0.5,1.2-1.2,1.2h-4.8
		c-0.7,0-1.2-0.5-1.2-1.2v0c0-4.1-1.7-4.2-6.7-4.2c-7.2,0-8.3,0.7-8.3,4.7c0,4.6,1,4.8,8.3,5.2c11.6,0.7,14.7,1.3,14.7,10.9
		c0,10.6-5,11.5-14.7,11.5c-8.3,0-15.7,0.2-15.7-10.5v-0.6c0-0.7,0.5-1.2,1.2-1.2H448.1z"/>
</g>
<g>
	<g>
		<path class="st2" d="M42.5,65.2l-1.12.32-2,.43-2.14.38-5.67.07-2.1-.12-2-.24L26.1,65.8l-.82-.2-1.75-.49L8.69,53.38,4.56,33.1,9,12.69,28.22,2.19s9.56-.5,9.64-.44S49.61,5.5,49.61,5.5l10,13.2L62.5,41.56,54.56,56,42.5,65.2"></path>
	</g>
	<g>
		<path class="st0" d="M32,28.3c-1.2-0.5-2.7-0.3-3.7,0.6c-0.1,0.1-0.1,0.1,0,0.2c0,0.1,0.1,0.1,0.2,0.1l0.1,0
			c1.2-0.4,2.3-0.2,3.1,0.3c0.5,0.3,0.9,0.7,1.2,1.2c-0.3-0.4-0.7-0.6-1.2-0.7c-0.3,0-0.5,0-0.8,0c-0.2,0-0.2,0.2-0.1,0.3
			c0.2,0.2,0.3,0.4,0.3,0.7c0,0.4-0.3,0.7-0.7,0.8c-0.2,0-0.4,0-0.5-0.1c-0.1-0.1-0.3,0-0.3,0.2c0,0.2,0,0.3,0.1,0.5
			c0.2,0.7,0.9,1.2,1.7,1.3c0.9,0,1.7-0.6,1.9-1.5c0,0.6-0.2,1.3-0.6,1.8c-0.6,0.7-1.5,1.3-2.8,1.4l0,0c-0.1,0-0.1,0.1-0.1,0.1
			c0,0,0,0.1,0.1,0.1c0.6,0.2,1.3,0.2,1.9,0c0.6-0.1,1.2-0.5,1.7-0.9c0.2-0.2,0.5-0.5,0.6-0.7c0.2-0.3,0.3-0.6,0.4-0.9
			c0.2-0.6,0.3-1.3,0.1-1.9C34.2,29.9,33.3,28.7,32,28.3z"/>
	</g>
	<g>
		<path class="st0" d="M44.1,44.4c0-0.1,0-0.2-0.1-0.3c0-0.1-0.1-0.1-0.2-0.2c-0.1-0.1-0.2-0.2-0.2-0.3c-0.1-0.4,0.3-0.7,0.9-1.1
			c0,0,0,0,0,0c0.1-0.1,0.2-0.2,0.3-0.2c0,0,0.1,0,0.1-0.1c0.3-0.2,0.4-0.5,0.4-0.8c0-0.2-0.1-0.3-0.3-0.2c-0.1,0-0.1,0.1-0.2,0.1
			c-0.2,0.1-0.4,0.2-0.6,0.3c-0.4,0.2-0.9,0.4-1.4,0.6h0c-0.2,0.1-0.3,0.1-0.5,0.2c-1.1,0.4-2.3,0.7-3.5,0.9
			c-0.7,0.1-1.4,0.2-2.1,0.2l0,0c-0.5,0-1,0-1.4,0c-1.2,0-2.3-0.1-3.5-0.4c-0.2,0-0.3,0.1-0.2,0.3c0.6,0.7,1.2,1.2,2,1.8
			c0.9,0.6,2,1,3.1,1.2c0.5,0.1,0.9,0.1,1.4,0.1c1.4,0,2.8-0.3,4-0.9c0.5-0.3,1-0.6,1.5-0.9C44,44.6,44.1,44.5,44.1,44.4z"/>
	</g>
	<g>
		<path class="st0" d="M34,23.6C34,23.6,34,23.6,34,23.6c-1.6-1.1-3.4-1.6-5.2-1.1c-1.7,0.4-3.2,1.6-4.2,3.2
			c-0.1,0.2-0.4,0.8-0.4,0.8c-0.1,0.1-0.1,0.2-0.1,0.4c0,0.3,0.3,0.5,0.5,0.4c0.1,0,0.1-0.1,0.2-0.1l0,0c1.2-1.4,2.7-2.3,4.5-2.8
			c1.5-0.4,3-0.3,4.4,0.2l0,0c0.1,0,0.1,0,0.2,0c0.2-0.1,0.4-0.3,0.3-0.6C34.1,23.8,34.1,23.7,34,23.6z"/>
	</g>
	<g>
		<path class="st0" d="M41.9,47.4c-1,0.4-2.1,0.6-3.3,0.6c-0.2,0-0.4,0-0.6,0c-0.1,0-0.2,0.2-0.1,0.3c0.5,0.4,1.1,0.7,1.8,0.7
			c1,0,1.9-0.5,2.4-1.4C42.1,47.5,42,47.3,41.9,47.4z"/>
	</g>
	<g>
		<path class="st0" d="M66.5,33.3C66.5,14.9,51.7,0,33.3,0S0,14.9,0,33.3c0,15.9,11.2,29.2,26.1,32.5c0,0,0-0.1,0-0.1l-0.8-5.8l0,0
			l-1.1-8c0-0.3,0.1-0.4,0.3-0.2c0.6,0.8,1.4,1.4,2.2,2c0.9,0.6,1.9,1.1,2.9,1.5c0.4,0.1,0.7,0.4,0.9,0.8c0.4,0.9,1.1,1.7,2.1,2.2
			c0.3,0.1,0.4,0.5,0.3,0.8l-2.2,7.6c0.8,0.1,1.6,0.1,2.4,0.1c1.4,0,2.8-0.1,4.2-0.3l-1.8-7c-0.1-0.3,0.1-0.6,0.4-0.7
			c0.4-0.1,0.7-0.2,1.1-0.4c0.8-0.4,1.4-1.1,1.9-1.9c0.1-0.1,0-0.3-0.2-0.3c-0.7,0.1-1.5,0.2-2.3,0.2c0,0-0.1,0-0.1,0
			c-0.5,0-1.1-0.1-1.6-0.1c-0.4-0.1-0.7-0.1-1-0.2c-0.2,0-0.1-0.2,0-0.2c0.3,0,0.6,0,0.9-0.1c0.4-0.1,0.9-0.1,1.3-0.3
			c0.2,0,0.3-0.1,0.5-0.1l0,0c0.8-0.2,1.5-0.5,2.1-0.9c0.3-0.2,0.6-0.4,0.9-0.6c0.1,0,0.1-0.1,0.2-0.2c0.1-0.1,0-0.2-0.1-0.2
			c-0.1,0-0.1,0-0.2,0c-0.4,0.1-0.8,0.1-1.2,0.2c-0.4,0-0.7,0-1.1,0c-0.8,0-1.6-0.1-2.4-0.3c-1.2-0.3-2.4-0.8-3.4-1.5
			c-0.2-0.1-0.4-0.2-0.5-0.4c-0.7-0.5-1.3-1.1-1.8-1.7c-0.3-0.4-0.6-0.8-0.9-1.3c-0.3-0.5-0.6-1.1-0.8-1.6c-0.1-0.4-0.3-0.7-0.4-1.1
			c-0.2-0.6-0.3-1.2-0.3-1.8c0-0.4-0.1-0.9-0.1-1.3c0,0,0-0.1,0-0.1c0-0.2,0-0.7,0.1-1c0-0.3-0.1-0.6-0.3-0.7
			c-0.1-0.1-0.3-0.2-0.3-0.2c-0.2-0.2-0.4-0.3-0.6-0.5c0,0-0.1-0.1-0.1-0.1c0,0-0.1-0.1-0.1-0.1c0,0,0,0-0.1,0
			c-0.2-0.1-0.3-0.2-0.5-0.4c-0.4-0.4-0.7-0.8-1-1.3c-0.1-0.2-0.2-0.3-0.3-0.5c-0.4-0.7-0.8-1.4-1-2.2c-0.2-0.6-0.4-1.2-0.5-1.9
			c-0.1-0.4-0.3-1.3,0.3-1.1c0,0,0,0,0,0c1.3,0.3,2.5,0.7,2.5,0.7c0,0,0,0,0,0s0,0,0,0c0.5,2.8,3,4.8,6,4.7c2.5-0.1,4.9-2.1,5.5-4.5
			c0,1-0.1,2.1-0.4,3.1l0,0c0,0-0.3,1.4,0.3,2c0.8,0.5,1.7,0.8,2.7,0.9c1.9,0,3.5-1,4.4-2.5c0.1-0.2-0.1-0.5-0.3-0.4
			c-1.1,0.4-2.3,1.2-2.8,0.1c-0.5-1.2-1.2-4-1.6-5.5c-0.1-0.6-0.7-1-1.3-1c-0.1,0-0.2,0-0.3,0l0,0c0,0-0.4,0-0.1-0.2
			c0.6-0.3,1.3-0.4,2-0.4c0,0,0.1,0,0.1,0c0.5,0,0.8,0.3,1,0.8c0.7,2.5,2.9,4.3,5.6,4.3c1,0,2-0.2,2.8-0.7c0,0,0,0,0,0c0,0,0,0,0,0
			c0,0,0,0,0,0c0.2-0.1,0.7-0.3,0.9,0c0.3,0.4,0.8,1.4,1,3.5c0,0.5,0,1,0,1.5c0,0.6-0.1,1.3-0.3,2.1c-0.1,0.3,0.1,0.5,0.3,0.6
			c1.1,0.6,2.2,1.3,3.2,2.2c0.6,0.5,1.1,1,1.6,1.5c0.2,0.2-0.1,0.4-0.2,0.3c-1.2-1-2.8-2.2-4.7-2.8c-0.3-0.1-0.6,0.1-0.7,0.3
			c-0.3,0.9-0.8,2.1-1.2,2.9c0,0,0,0,0,0c-0.1,0.3-0.3,0.6-0.4,0.9l-0.1,0.1c-0.1,0.1-0.3,0.5-0.4,0.7c0,0,0,0,0,0c0,0,0,0,0,0
			c-0.3,0.5-0.6,1-0.9,1.5c0,0,0,0,0,0c0,0,0,0,0,0c-0.5,0.7-1.1,1.3-1.8,1.9c-0.1,0.1-0.2,0.3-0.2,0.4L44.2,52L44,53.4l0,0.2
			l-1.5,11.5c0,0,0,0.1,0,0.1C56.4,61.2,66.5,48.5,66.5,33.3z M14.1,34.3c0-0.1,0-0.1,0-0.2c0-0.1,0-0.1,0-0.2c0-0.1,0-0.1,0-0.2
			c0-0.1,0-0.1,0-0.2l0-0.2l0.1-0.2c0-0.1,0-0.1,0.1-0.2l0.1-0.2c0.1-0.1,0.1-0.2,0.2-0.4c0.1-0.1,0.2-0.2,0.3-0.3
			c0.2-0.2,0.4-0.4,0.6-0.5c0.1,0,0.1-0.1,0.2-0.1c0.1,0,0.1-0.1,0.2-0.1c0.1,0,0.3-0.1,0.4-0.1c0.3,0,0.5,0,0.8,0
			c0.1,0,0.2,0.1,0.4,0.1c0.1,0.1,0.2,0.1,0.3,0.2l0,0v0c0,0,0,0,0,0.1c0,0,0,0,0,0.1c0,0-0.1,0.1-0.1,0.1c0,0,0,0,0,0
			c-0.2,0-0.4-0.1-0.6-0.1c-0.2,0-0.4,0-0.6,0.1c-0.2,0.1-0.4,0.2-0.5,0.3c-0.2,0.1-0.3,0.3-0.4,0.4c0,0-0.1,0.1-0.1,0.2
			c-0.1,0.1-0.1,0.3-0.2,0.4c-0.1,0.2-0.1,0.4-0.2,0.6c0,0.1,0,0.2,0,0.3s0,0.2,0,0.3c0,0.2,0,0.4,0,0.6c0,0.1,0,0.2,0,0.3
			c0,0.1,0,0.2,0.1,0.3c0.1,0.3,0.2,0.6,0.3,0.9c0.1,0.3,0.3,0.6,0.5,0.8c0.3,0.3,0.6,0.6,0.9,0.9c0.1,0.1,0.2,0.1,0.3,0.2
			c0.2,0.1,0.4,0.2,0.6,0.2c0.1,0,0.2,0,0.3,0.1c0,0,0.1,0,0.1,0.1c0,0,0,0.1-0.1,0.1l0,0c-0.5,0.1-1,0.1-1.5-0.1
			c-0.5-0.2-0.9-0.5-1.2-0.8c-0.4-0.5-0.8-1-1-1.6c-0.1-0.2-0.2-0.5-0.2-0.7c0-0.1,0-0.3-0.1-0.4c0-0.1,0-0.1,0-0.2
			c0-0.1,0-0.1,0-0.2c0-0.1,0-0.1,0-0.2C14.1,34.4,14.1,34.3,14.1,34.3z M19.1,59.1c-0.6,0-1-0.5-1-1.1c0-0.6,0.5-1,1.1-1
			c0.6,0,1,0.5,1,1.1C20.1,58.6,19.7,59.1,19.1,59.1z M20.3,45.5L20.3,45.5c-0.5-0.3-1-0.6-1.3-1c-0.4-0.4-0.7-0.8-0.9-1.3
			c0-0.1-0.1-0.1-0.1-0.2l0,0c-0.6,0.1-1.2,0.2-1.8,0.4c-0.6,0.2-1.2,0.4-1.7,0.7c-0.6,0.3-1.1,0.6-1.6,0.9c-0.5,0.3-1,0.7-1.5,1.1
			l0,0c-0.1,0.1-0.2,0.1-0.2,0c-0.1-0.1-0.1-0.2,0-0.2c0.4-0.5,0.9-0.9,1.4-1.3c0.5-0.4,1-0.8,1.6-1.1c0.6-0.3,1.1-0.7,1.7-0.9
			c0.6-0.3,1.1-0.4,1.7-0.6c0-0.1,0-0.2-0.1-0.3c-0.1-0.5-0.2-1-0.1-1.6l0,0c0,0,0,0,0,0c0,0,0.1,0,0.1,0c0.3,0.9,0.7,1.9,1.2,2.7
			c0.2,0.4,0.5,0.9,0.8,1.3c0.3,0.4,0.6,0.8,0.9,1.2c0,0,0,0.1,0,0.1C20.4,45.5,20.4,45.5,20.3,45.5z M35,33.9
			c-0.1,0.1-0.1,0.3-0.2,0.4c-0.3,0.5-0.7,1-1.2,1.4c-0.1,0.1-0.2,0.2-0.4,0.3c-0.3,0.2-0.5,0.3-0.8,0.4c-0.3,0.1-0.6,0.2-0.9,0.3
			c-0.3,0.1-0.6,0.1-1,0.1c-0.3,0-0.7,0-1-0.1c-0.3-0.1-0.6-0.2-0.9-0.3c-0.3-0.1-0.6-0.3-0.8-0.5c-0.1-0.1-0.2-0.2-0.4-0.3
			c-0.5-0.4-0.9-0.9-1.1-1.4c-0.1-0.1-0.1-0.3-0.2-0.4c-0.2-0.6-0.4-1.2-0.3-1.9v0c0-2.7,2.2-4.8,4.9-4.7c2.7,0,4.8,2.2,4.7,4.9
			C35.4,32.7,35.2,33.3,35,33.9z M39.7,27.5c-0.1,0.4-0.5,0.7-0.9,0.7l0,0c-0.9,0-1.8,0.2-2.6,0.6c-0.3,0.1-0.7,0.1-0.9-0.2
			c-1.1-1.5-2.8-2.5-4.8-2.5c-3,0-5.6,2.4-5.8,5.5c0,0,0,0,0,0L23,31.2c0,0-2.7-0.5-3.7-0.7c-0.9-0.2-0.5-0.3,0.8-0.1
			c0.5,0.1,1.7,0.2,1.9-0.5c0,0,0-0.2,0.1-0.5c0-0.2,0.3-1,0.4-1.8c0,0,0,0,0,0c0.2-0.9-0.3-1.2-0.6-1.2c-0.2,0-0.4-0.1-0.7-0.1
			c-0.2,0-0.3,0-0.5,0c-0.2,0-0.5,0-0.7,0c-0.1,0-0.1,0-0.2,0c-0.2,0-0.5,0-0.7,0c0,0,0,0,0,0h0c-0.2,0-0.4,0-0.5,0.1
			c-0.5,0.1-1,0.2-1.5,0.3c0,0,0,0,0,0c0,0-0.1,0-0.1,0l0,0c0,0,0,0,0,0c-0.1,0-0.2,0.1-0.3,0.1c0,0,0,0,0,0c0,0,0,0,0,0
			c-0.3,0.1-0.6,0.1-0.7,0.1c-0.3-0.1,0.1-0.4,0.2-0.4c0.1-0.1,0.2-0.1,0.4-0.2c0,0,0.1,0,0.1,0c0.6-0.3,1.2-0.5,1.9-0.6
			c0.6-0.2,1.3-0.3,2-0.3c0.4,0,0.8,0,1.3,0l0,0c0,0,0.6-0.1,0.4-0.3c-0.2-0.2-1.1-0.3-1.1-0.3l0,0c-0.2,0-0.4,0-0.6,0
			c-0.8,0-1.5,0-2.2,0.1c-0.4,0.1-1.3,0.2-1.3,0.2s-1.1,0.3-1.4,0.1c-0.4-0.2,0.3-0.5,0.3-0.5l0,0c0.4-0.2,0.9-0.4,1.3-0.6
			c0.7-0.2,1.4-0.4,2.1-0.5c0.2,0,0.5-0.1,0.7-0.1c0.2,0,0.4-0.1,0.2-0.3c-0.2-0.2-1-0.2-1.1-0.2c0,0,0,0,0,0c0,0-0.1,0-0.1,0
			c-0.7,0.1-1.4,0.2-2.1,0.3c0,0-1.1,0.3-1.4,0.1c-0.3-0.2,0-0.4,0.2-0.5l-0.1,0c0,0,0,0,0.1,0c0.1,0,0.1,0,0.1,0l0,0
			c0.6-0.3,1.3-0.5,2-0.7c0.3-0.1,0.4-0.2,0.3-0.3c-0.2-0.3-0.7-0.2-1.5,0c-0.2,0.1-0.5,0.1-0.7,0.2c-0.1,0-0.3-0.1-0.2-0.2
			c1.8-9,8.2-14.4,14.8-15c0.2,0,1-0.5,2.2-0.8c0.6-0.2,1.3-0.2,1.9-0.3l0,0c0,0,0.1,0,0.1,0.1c0,0,0,0.1-0.1,0.1
			c-0.1,0-0.2,0.1-0.3,0.1l0,0c0,0-3,0.5-4.5,2.3c0,0,0,0,0,0c0,0-0.1,0.1-0.1,0.1c0,0,0,0,0,0l0,0c0,0.1,0.1,0.2,0.2,0.1
			c3.3-1.8,5.6-1.9,5.9-2c1.3-0.2,2.6,0,3.8,0.3l0,0c0,0,0.1,0,0.1,0.1c0,0,0,0.1-0.1,0.1c-1.2,0.1-2.3,0.2-3.4,0.4c0,0,0,0,0,0
			c0,0-0.1,0-0.1,0c-1.2,0.3-2.3,0.7-3.3,1.3C32.6,9,32.8,9.1,33.1,9c3.3-0.9,6.1-0.6,7.3-0.3c0.5,0.1,1.9,0.5,3.1,1l0,0
			c0,0,0.1,0.1,0,0.1c0,0-0.1,0.1-0.1,0.1c-0.2,0-0.4-0.1-0.7-0.1l0,0c-3.7-1.1-6.9,0.1-6.9,0.1c-0.1,0-0.1,0.2,0,0.2
			c1.8-0.2,5-0.2,6.9,1.2c0.1,0.1,0.2,0.2,0.3,0.3c0,0,0,0,0.1,0.1c1.3,1.2,2.2,2.6,2.8,3.9c0.3,0.8,0.6,2,0.7,2.7
			c0,0.3-0.2,0.5-0.4,0.5c-1.2-0.1-2.1,0.1-2.9,0.3c0,0-0.1,0-0.1,0c-0.1,0-0.3,0.1-0.4,0.1c0,0-0.1,0-0.1,0
			c-0.7,0.3-1.1,0.5-1.1,0.5l0,0c-0.5,0.3-1.1,0.7-1.5,1.1c-0.9,0.8-1.4,1.9-1.4,1.9c-0.1,0.1-0.1,0.2-0.1,0.4
			c0.1,0.3,0.3,0.5,0.5,0.4c0.1,0,0.1-0.1,0.2-0.1l0,0c1.4-1.3,3.1-2.2,5-2.6c0.8-0.2,1.6-0.2,2.4-0.2c0.4,0,0.7,0.3,0.7,1
			c0,0,0,0.1,0,0.1c0,0.7-0.2,1.1-0.7,1c0,0,0,0,0,0c-0.3-0.1-0.6-0.1-0.9-0.1C42.8,22.5,40.2,24.6,39.7,27.5z M50.1,30
			c-0.1,0.4-0.3,0.7-0.5,1c-0.1,0.2-0.3,0.4-0.4,0.6c-0.2,0.2-0.3,0.4-0.5,0.5c-0.2,0.2-0.4,0.3-0.6,0.4c-0.1,0.1-0.3,0.1-0.4,0.2
			c0,0-0.1,0-0.1,0c-0.1,0.1-0.3,0.1-0.4,0.2c-0.1,0-0.2,0.1-0.4,0.1c0,0-0.1,0-0.1,0c-0.1,0-0.2,0-0.3,0.1c0,0-0.1,0-0.1,0
			c-0.1,0-0.2,0-0.3,0c0,0-0.1,0-0.1,0c-0.1,0-0.3,0-0.4,0c-0.1,0-0.3,0-0.4,0c0,0-0.1,0-0.1,0c-0.1,0-0.2,0-0.3,0c0,0-0.1,0-0.1,0
			c-0.1,0-0.2,0-0.3-0.1c0,0-0.1,0-0.1,0c-0.1,0-0.2-0.1-0.4-0.1c-0.1-0.1-0.3-0.1-0.4-0.2c0,0-0.1,0-0.1-0.1
			c-0.1-0.1-0.3-0.1-0.4-0.2c-0.2-0.1-0.4-0.3-0.6-0.5c-0.2-0.2-0.4-0.3-0.5-0.5c-0.2-0.2-0.3-0.4-0.4-0.6c-0.2-0.3-0.3-0.7-0.4-1
			c-0.1-0.5-0.2-0.9-0.2-1.4c0-0.5,0.1-1,0.2-1.4c0.1-0.3,0.2-0.6,0.4-0.9c0.2-0.3,0.3-0.5,0.5-0.8c0.5-0.6,1.1-1,1.9-1.3
			c0.3-0.1,0.6-0.2,0.9-0.3c0.3-0.1,0.6-0.1,1-0.1c0.3,0,0.7,0,1,0.1c0.3,0.1,0.6,0.2,0.9,0.3c0.7,0.3,1.3,0.8,1.8,1.4
			c0.2,0.2,0.4,0.5,0.5,0.8c0.1,0.3,0.3,0.6,0.3,0.9c0.1,0.5,0.2,0.9,0.2,1.4C50.3,29.1,50.2,29.6,50.1,30z"/>
	</g>
	<g>
		<path class="st0" d="M46.9,24.9c-1.2-0.5-2.7-0.3-3.7,0.6c-0.1,0.1-0.1,0.1,0,0.2c0,0.1,0.1,0.1,0.2,0.1l0.1,0
			c1.2-0.4,2.3-0.2,3.1,0.3c0.6,0.3,1,0.8,1.3,1.4c-0.3-0.4-0.7-0.6-1.2-0.7c-0.3,0-0.5,0-0.8,0c-0.2,0-0.2,0.2-0.1,0.3
			c0.2,0.2,0.3,0.4,0.3,0.7c0,0.4-0.3,0.7-0.7,0.8c-0.2,0-0.4,0-0.5-0.1c-0.1-0.1-0.3,0-0.3,0.2c0,0.2,0,0.3,0.1,0.5
			c0.2,0.7,0.9,1.2,1.7,1.3c0.7,0,1.3-0.3,1.7-0.9c-0.1,0.4-0.3,0.7-0.5,1.1c-0.6,0.7-1.5,1.3-2.8,1.4l0,0c-0.1,0-0.1,0.1-0.1,0.1
			c0,0,0,0.1,0.1,0.1c0.6,0.2,1.3,0.2,1.9,0c0.6-0.1,1.2-0.5,1.7-0.9c0.2-0.2,0.5-0.5,0.6-0.7c0.2-0.3,0.3-0.6,0.4-0.9
			c0.2-0.6,0.3-1.3,0.1-1.9C49.1,26.5,48.2,25.4,46.9,24.9z"/>
	</g>
</g>
</svg>
