<svg xmlns="http://www.w3.org/2000/svg" width="472" height="66.08" viewBox="0 0 1000 140">
  <defs>
    <style>
      .cls-1 {
        fill: #c8c8c8;
      }

      .cls-1, .cls-2, .cls-3 {
        fill-rule: evenodd;
      }

      .cls-2 {
        fill: #f3994e;
      }

      .cls-3 {
        fill: #787676;
      }
    </style>
  </defs>
  <path id="Du_använder_en_gammal_version_av_SweClockers_Dark_Besök_forumtr" data-name="Du använder en gammal version av SweClockers Dark Besök forumtr" class="cls-1" d="M30.05,44.836c0-8.153-5.2-13.884-15.347-13.884H6.247V58.8h8.287C24.554,58.8,30.05,53.11,30.05,44.836Zm-4.1.04c0,7.1-4.228,10.494-11.246,10.494H10.221V34.383H14.83C21.51,34.383,25.949,37.894,25.949,44.876ZM52.625,58.8V39.549H48.862V52.868c-1.818,1.857-3.847,3.108-5.835,3.108-2.2,0-3.086-1.332-3.086-3.31V39.549H36.178V53.554c0,3.471,1.987,5.651,5.835,5.651a10.949,10.949,0,0,0,7.145-3.189L49.623,58.8h3Zm32.171,0V45.32c0-4.278-2.368-6.175-7.272-6.175A20.316,20.316,0,0,0,69.7,40.76l0.507,3.108a18,18,0,0,1,6.976-1.655c2.325,0,3.847.848,3.847,3.269v0.807c-8.414.848-12.726,2.745-12.726,7.547,0,3.269,2.283,5.368,5.919,5.368a9.716,9.716,0,0,0,7.1-2.987L81.752,58.8H84.8Zm-3.763-5.287a8.734,8.734,0,0,1-6,2.7c-1.9,0-3-1.009-3-2.583,0-1.978,1.564-3.915,9.006-4.6v4.48ZM107.921,58.8V44.8c0-3.471-2.03-5.65-5.835-5.65-2.875,0-5.243,1.534-7.145,3.188l-0.465-2.785h-3V58.8h3.763V45.482c1.818-1.857,3.848-3.108,5.834-3.108,2.2,0,3.087,1.332,3.087,3.31V58.8h3.763Zm22.322-19.252H126.4l-5.074,14.934-5.242-15.216-3.763.565,7.145,19.05h3.594ZM150.323,58.8V45.32c0-4.278-2.367-6.175-7.272-6.175a20.316,20.316,0,0,0-7.822,1.614l0.508,3.108a17.994,17.994,0,0,1,6.976-1.655c2.325,0,3.847.848,3.847,3.269v0.807c-8.413.848-12.726,2.745-12.726,7.547,0,3.269,2.283,5.368,5.919,5.368a9.715,9.715,0,0,0,7.1-2.987l0.423,2.583h3.044Zm-3.763-5.287a8.733,8.733,0,0,1-6,2.7c-1.9,0-3-1.009-3-2.583,0-1.978,1.564-3.915,9-4.6v4.48Zm1.988-16.951V32.486h-4.186v4.076h4.186Zm-7.569,0V32.486h-4.185v4.076h4.185ZM173.448,58.8V44.8c0-3.471-2.029-5.65-5.835-5.65-2.875,0-5.242,1.534-7.145,3.188L160,39.549h-3V58.8h3.763V45.482c1.818-1.857,3.848-3.108,5.835-3.108,2.2,0,3.086,1.332,3.086,3.31V58.8h3.763Zm23.5,0V29.66l-3.763.565v9.929a14.78,14.78,0,0,0-5.073-.848c-4.905,0-9.133,3.39-9.133,10.413,0,6.458,3.594,9.485,7.949,9.485a8.473,8.473,0,0,0,6.553-3.189l0.465,2.785h3Zm-3.763-6.175c-1.606,2.058-3.382,3.39-5.707,3.39-2.706,0-4.693-2.22-4.693-6.458,0-4.763,2.283-7.225,5.454-7.225a9.887,9.887,0,0,1,4.946,1.09v9.2Zm26.846-3.834c0-5.328-2.706-9.646-8.583-9.646-5.074,0-8.879,3.794-8.879,9.969,0,7.063,4.1,10.09,9.344,10.09a12.944,12.944,0,0,0,8.076-2.583l-0.55-3.229a11.4,11.4,0,0,1-7.23,2.744c-3.509,0-5.75-2.1-5.877-6.579h13.7V48.791Zm-3.805-1.937h-9.725c0.592-3.31,2.579-4.884,4.905-4.884C214.328,41.97,215.766,43.746,216.231,46.854Zm20.715-4.278-0.592-3.431a8.968,8.968,0,0,0-7.061,4.319l-0.634-3.915h-3V58.8h3.763V47.419A9.243,9.243,0,0,1,236.946,42.576ZM268.1,48.791c0-5.328-2.706-9.646-8.582-9.646-5.074,0-8.879,3.794-8.879,9.969,0,7.063,4.1,10.09,9.344,10.09a12.939,12.939,0,0,0,8.075-2.583l-0.55-3.229a11.4,11.4,0,0,1-7.229,2.744c-3.51,0-5.75-2.1-5.877-6.579h13.7V48.791Zm-3.8-1.937h-9.724c0.592-3.31,2.579-4.884,4.9-4.884C262.4,41.97,263.832,43.746,264.3,46.854ZM290.17,58.8V44.8c0-3.471-2.029-5.65-5.834-5.65-2.875,0-5.243,1.534-7.146,3.188l-0.465-2.785h-3V58.8h3.763V45.482c1.818-1.857,3.848-3.108,5.835-3.108,2.2,0,3.086,1.332,3.086,3.31V58.8h3.763Zm21.6-1.493c0.8,0.161,1.4.282,2.5,0.484l2.41,0.4c2.875,0.484,3.805,1.292,3.805,2.462,0,1.614-2.2,2.906-6.131,2.906s-6-1.13-6-2.664C308.347,59.568,309.4,58.438,311.771,57.308Zm6.258-11.5a3.977,3.977,0,0,1-4.186,4.117,3.872,3.872,0,0,1-4.1-3.955A4.144,4.144,0,0,1,318.029,45.8Zm1.014-5.045a8.511,8.511,0,0,0-5.2-1.614c-4.1,0-7.737,2.543-7.737,6.7a6.237,6.237,0,0,0,3.763,5.731c-1.353.767-2.114,1.7-2.114,2.624a2.445,2.445,0,0,0,1.268,2.018c-2.833,1.453-4.27,2.987-4.27,4.964,0,3.39,4.186,4.964,9.428,4.964s9.852-1.9,9.852-5.933c0-2.987-2.664-4.278-6.934-5l-1.438-.242c-3.551-.605-4.27-0.767-4.27-1.453a1.815,1.815,0,0,1,1.015-1.17,9.665,9.665,0,0,0,1.522.121c4.1,0,7.737-2.5,7.737-6.619a5.581,5.581,0,0,0-.8-2.987l3.847-.363-0.55-3.229ZM344.2,58.8V45.32c0-4.278-2.367-6.175-7.272-6.175a20.311,20.311,0,0,0-7.821,1.614l0.507,3.108a17.994,17.994,0,0,1,6.976-1.655c2.325,0,3.848.848,3.848,3.269v0.807c-8.414.848-12.727,2.745-12.727,7.547,0,3.269,2.283,5.368,5.919,5.368a9.715,9.715,0,0,0,7.1-2.987l0.423,2.583H344.2Zm-3.762-5.287a8.737,8.737,0,0,1-6,2.7c-1.9,0-3-1.009-3-2.583,0-1.978,1.564-3.915,9.006-4.6v4.48ZM379.5,58.8V44.8c0-3.471-1.86-5.65-5.708-5.65a10.85,10.85,0,0,0-7.1,3.188c-0.761-1.978-2.368-3.188-5.327-3.188-2.833,0-5.116,1.534-7.019,3.188l-0.465-2.785h-3V58.8h3.763V45.482c1.818-1.857,3.721-3.108,5.708-3.108,2.2,0,2.96,1.332,2.96,3.31V58.8h3.763V45.482c1.818-1.857,3.72-3.108,5.707-3.108,2.2,0,2.96,1.332,2.96,3.31V58.8H379.5Zm35.3,0V44.8c0-3.471-1.86-5.65-5.708-5.65a10.85,10.85,0,0,0-7.1,3.188c-0.761-1.978-2.368-3.188-5.327-3.188-2.833,0-5.116,1.534-7.019,3.188l-0.465-2.785h-3V58.8h3.763V45.482c1.818-1.857,3.721-3.108,5.708-3.108,2.2,0,2.96,1.332,2.96,3.31V58.8h3.763V45.482c1.818-1.857,3.72-3.108,5.707-3.108,2.2,0,2.96,1.332,2.96,3.31V58.8H414.8Zm21.939,0V45.32c0-4.278-2.367-6.175-7.272-6.175a20.315,20.315,0,0,0-7.821,1.614l0.507,3.108a18,18,0,0,1,6.976-1.655c2.326,0,3.848.848,3.848,3.269v0.807c-8.414.848-12.727,2.745-12.727,7.547,0,3.269,2.283,5.368,5.92,5.368a9.718,9.718,0,0,0,7.1-2.987L433.7,58.8h3.044Zm-3.762-5.287a8.737,8.737,0,0,1-6,2.7c-1.9,0-3-1.009-3-2.583,0-1.978,1.564-3.915,9.006-4.6v4.48Zm14.5,5.287V29.66l-3.763.565V58.8h3.763Zm33.23-19.252h-3.848l-5.073,14.934-5.243-15.216-3.763.565,7.145,19.05h3.594Zm20.461,9.243c0-5.328-2.706-9.646-8.582-9.646-5.074,0-8.879,3.794-8.879,9.969,0,7.063,4.1,10.09,9.344,10.09a12.939,12.939,0,0,0,8.075-2.583l-0.55-3.229a11.4,11.4,0,0,1-7.229,2.744c-3.51,0-5.75-2.1-5.877-6.579h13.7V48.791Zm-3.8-1.937h-9.724c0.592-3.31,2.579-4.884,4.9-4.884C495.46,41.97,496.9,43.746,497.362,46.854Zm20.715-4.278-0.592-3.431a8.97,8.97,0,0,0-7.061,4.319l-0.634-3.915h-3V58.8h3.763V47.419A9.244,9.244,0,0,1,518.077,42.576Zm18.39,10.857c0-3.673-2.24-5.045-7.229-6.256-3.171-.767-4.186-1.493-4.186-2.785,0-1.372,1.184-2.22,3.467-2.22a13.321,13.321,0,0,1,6.13,1.655l0.592-3.39a16.965,16.965,0,0,0-6.638-1.291c-4.4,0-7.1,2.26-7.1,5.328,0,3.431,1.9,4.8,6.638,5.933,3.636,0.847,4.778,1.493,4.778,3.269,0,1.614-1.522,2.543-4.1,2.543a13.009,13.009,0,0,1-7.1-2.22l-0.55,3.39a17.163,17.163,0,0,0,7.357,1.816C533.719,59.2,536.467,56.944,536.467,53.433Zm10.018-20.019a2.345,2.345,0,0,0-2.367-2.3,2.383,2.383,0,0,0-2.41,2.3,2.35,2.35,0,0,0,2.41,2.26A2.312,2.312,0,0,0,546.485,33.414ZM545.978,58.8V39.549h-3.763V58.8h3.763ZM570.542,49.2c0-6.337-3.975-10.05-9.387-10.05-5.369,0-9.259,3.713-9.259,10.05s3.89,10.01,9.259,10.01C566.567,59.2,570.542,55.532,570.542,49.2Zm-3.806,0c0,4.036-1.86,7.023-5.581,7.023-3.551,0-5.454-3.067-5.454-7.023,0-4.036,1.818-7.023,5.454-7.023S566.736,45.24,566.736,49.2ZM592.609,58.8V44.8c0-3.471-2.029-5.65-5.834-5.65-2.875,0-5.243,1.534-7.146,3.188l-0.465-2.785h-3V58.8h3.763V45.482c1.818-1.857,3.848-3.108,5.835-3.108,2.2,0,3.086,1.332,3.086,3.31V58.8h3.763Zm32.087,0V45.32c0-4.278-2.368-6.175-7.272-6.175A20.316,20.316,0,0,0,609.6,40.76l0.507,3.108a18,18,0,0,1,6.976-1.655c2.326,0,3.848.848,3.848,3.269v0.807c-8.414.848-12.726,2.745-12.726,7.547,0,3.269,2.283,5.368,5.919,5.368a9.717,9.717,0,0,0,7.1-2.987l0.423,2.583H624.7Zm-3.763-5.287a8.733,8.733,0,0,1-6,2.7c-1.9,0-3-1.009-3-2.583,0-1.978,1.565-3.915,9.006-4.6v4.48Zm26.085-13.965H643.17L638.1,54.482l-5.243-15.216-3.763.565,7.146,19.05h3.593ZM24,99.077c0-3.673-2.2-5.772-5.454-6.7,2.621-1.049,4.186-2.946,4.186-5.772,0-4.278-3-7.225-9.428-7.225H6.247V107.23h6.976C19.946,107.23,24,104.647,24,99.077Zm-5.158-12.35c0,2.745-2.072,4.359-5.919,4.359h-2.79V82.61h3.087C17.2,82.61,18.846,84.184,18.846,86.726Zm1.268,12.431c0,3.228-2.41,4.843-6.6,4.843H10.137V94.193h3.256C17.747,94.193,20.115,95.929,20.115,99.158ZM45.9,97.22c0-5.328-2.706-9.646-8.583-9.646-5.074,0-8.879,3.794-8.879,9.969,0,7.063,4.1,10.09,9.344,10.09a12.937,12.937,0,0,0,8.075-2.583l-0.55-3.229a11.4,11.4,0,0,1-7.23,2.745c-3.509,0-5.75-2.1-5.877-6.579H45.9V97.22ZM42.1,95.283H32.374c0.592-3.31,2.579-4.884,4.9-4.884C40.2,90.4,41.633,92.175,42.1,95.283ZM65.6,101.862c0-3.673-2.241-5.045-7.23-6.256-3.171-.767-4.186-1.493-4.186-2.785,0-1.372,1.184-2.22,3.467-2.22a13.324,13.324,0,0,1,6.131,1.655l0.592-3.39a16.968,16.968,0,0,0-6.638-1.292c-4.4,0-7.1,2.26-7.1,5.328,0,3.431,1.9,4.8,6.638,5.933,3.636,0.848,4.778,1.493,4.778,3.269,0,1.614-1.522,2.543-4.1,2.543a13.012,13.012,0,0,1-7.1-2.22l-0.55,3.39a17.166,17.166,0,0,0,7.357,1.816C62.855,107.633,65.6,105.373,65.6,101.862Zm22.956-4.238c0-6.337-3.974-10.05-9.386-10.05-5.37,0-9.259,3.713-9.259,10.05s3.89,10.009,9.259,10.009C84.585,107.633,88.559,103.961,88.559,97.624Zm-3.805,0c0,4.036-1.86,7.023-5.581,7.023-3.551,0-5.454-3.068-5.454-7.023,0-4.036,1.818-7.023,5.454-7.023S84.754,93.669,84.754,97.624Zm0.254-12.633V80.915H80.822v4.076h4.186Zm-7.568,0V80.915H73.254v4.076h4.186Zm33.568,21.916L101.79,96.494l8.5-8.516h-4.524L97.943,96.05V78.089l-3.763.565V107.23h3.763V97.14l8.963,10.373Zm24.054-25.1-0.55-3.269c-0.381,0-.846-0.081-1.607-0.081-3.594,0-6.257,1.453-6.257,5.287v4.238H123.6V91h3.044V107.23h3.678V91h4.524l-0.465-3.027h-4.059V84.1c0-1.776,1.057-2.462,2.791-2.462A11.548,11.548,0,0,1,135.061,81.8Zm21.561,15.822c0-6.337-3.974-10.05-9.386-10.05-5.37,0-9.259,3.713-9.259,10.05s3.889,10.009,9.259,10.009C152.648,107.633,156.622,103.961,156.622,97.624Zm-3.805,0c0,4.036-1.86,7.023-5.581,7.023-3.551,0-5.454-3.068-5.454-7.023,0-4.036,1.818-7.023,5.454-7.023S152.817,93.669,152.817,97.624ZM173.532,91l-0.592-3.431a8.97,8.97,0,0,0-7.061,4.319l-0.634-3.915h-3V107.23h3.763V95.848A9.244,9.244,0,0,1,173.532,91Zm21.053,16.225V87.978h-3.763V101.3c-1.818,1.856-3.847,3.107-5.834,3.107-2.2,0-3.087-1.331-3.087-3.309V87.978h-3.763v14.005c0,3.471,1.987,5.65,5.835,5.65a10.947,10.947,0,0,0,7.145-3.188l0.465,2.785h3Zm35.386,0V93.225c0-3.471-1.86-5.651-5.708-5.651a10.85,10.85,0,0,0-7.1,3.189c-0.761-1.978-2.367-3.189-5.327-3.189-2.833,0-5.116,1.534-7.018,3.189l-0.466-2.785h-3V107.23h3.762V93.911c1.819-1.857,3.721-3.108,5.708-3.108,2.2,0,2.96,1.332,2.96,3.31V107.23h3.763V93.911c1.818-1.857,3.72-3.108,5.708-3.108,2.2,0,2.959,1.332,2.959,3.31V107.23h3.763Zm16.359,0.08-0.508-3.067a10.47,10.47,0,0,1-1.733.121c-2.114,0-2.791-.969-2.791-2.543V91h4.863l-0.508-3.027H241.3V81.036l-3.678.525v6.417h-3.044V91h3.044v11.462c0,3.875,2.325,5.086,5.877,5.086A14.6,14.6,0,0,0,246.33,107.31ZM263.028,91l-0.591-3.431a8.968,8.968,0,0,0-7.061,4.319l-0.634-3.915h-3V107.23H255.5V95.848A9.243,9.243,0,0,1,263.028,91Zm19.955,16.225V93.749c0-4.278-2.368-6.175-7.273-6.175a20.315,20.315,0,0,0-7.821,1.614L268.4,92.3a18,18,0,0,1,6.976-1.655c2.326,0,3.848.848,3.848,3.269v0.807c-8.414.848-12.727,2.745-12.727,7.547,0,3.27,2.284,5.368,5.92,5.368a9.718,9.718,0,0,0,7.1-2.986l0.422,2.583h3.045Zm-3.763-5.288a8.735,8.735,0,0,1-6,2.705c-1.9,0-3-1.009-3-2.583,0-1.978,1.564-3.915,9.006-4.6v4.48Zm0.253-20.826a4.4,4.4,0,0,0-8.794,0A4.407,4.407,0,0,0,279.473,81.116Zm-1.987,0a2.41,2.41,0,0,1-4.82,0A2.41,2.41,0,1,1,277.486,81.116Zm29,26.114V78.089l-3.763.565v9.929a14.782,14.782,0,0,0-5.074-.847c-4.9,0-9.132,3.39-9.132,10.413,0,6.457,3.594,9.484,7.949,9.484a8.476,8.476,0,0,0,6.553-3.188l0.465,2.785h3Zm-3.763-6.175c-1.607,2.058-3.382,3.39-5.708,3.39-2.706,0-4.693-2.22-4.693-6.458,0-4.763,2.283-7.225,5.454-7.225a9.887,9.887,0,0,1,4.947,1.09v9.2ZM329.57,97.22c0-5.328-2.7-9.646-8.582-9.646-5.074,0-8.879,3.794-8.879,9.969,0,7.063,4.1,10.09,9.344,10.09a12.935,12.935,0,0,0,8.075-2.583l-0.549-3.229a11.4,11.4,0,0,1-7.23,2.745c-3.51,0-5.75-2.1-5.877-6.579h13.7V97.22Zm-3.805-1.937h-9.724c0.592-3.31,2.579-4.884,4.9-4.884C323.863,90.4,325.3,92.175,325.765,95.283Zm25.873,11.947V93.225c0-3.471-2.029-5.651-5.834-5.651-2.875,0-5.243,1.534-7.146,3.189l-0.465-2.785h-3V107.23h3.763V93.911c1.818-1.857,3.848-3.108,5.835-3.108,2.2,0,3.086,1.332,3.086,3.31V107.23h3.763ZM378.017,81.8l-0.55-3.269c-0.38,0-.845-0.081-1.606-0.081-3.594,0-6.258,1.453-6.258,5.287v4.238h-3.044V91H369.6V107.23h3.679V91h4.524l-0.465-3.027h-4.059V84.1c0-1.776,1.057-2.462,2.79-2.462A11.548,11.548,0,0,1,378.017,81.8Zm21.942,15.822c0-6.337-3.975-10.05-9.387-10.05-5.369,0-9.259,3.713-9.259,10.05s3.89,10.009,9.259,10.009C395.984,107.633,399.959,103.961,399.959,97.624Zm-3.806,0c0,4.036-1.86,7.023-5.581,7.023-3.551,0-5.454-3.068-5.454-7.023,0-4.036,1.818-7.023,5.454-7.023S396.153,93.669,396.153,97.624Zm0.254-12.633V80.915h-4.186v4.076h4.186Zm-7.568,0V80.915h-4.186v4.076h4.186ZM416.868,91l-0.592-3.431a8.968,8.968,0,0,0-7.06,4.319l-0.635-3.915h-3V107.23h3.762V95.848A9.244,9.244,0,0,1,416.868,91Zm28.916,10.857c0-3.673-2.241-5.045-7.23-6.256-3.171-.767-4.185-1.493-4.185-2.785,0-1.372,1.183-2.22,3.467-2.22a13.323,13.323,0,0,1,6.13,1.655l0.592-3.39a16.967,16.967,0,0,0-6.638-1.292c-4.4,0-7.1,2.26-7.1,5.328,0,3.431,1.9,4.8,6.638,5.933,3.636,0.848,4.778,1.493,4.778,3.269,0,1.614-1.522,2.543-4.1,2.543a13.008,13.008,0,0,1-7.1-2.22l-0.55,3.39a17.164,17.164,0,0,0,7.357,1.816C443.036,107.633,445.784,105.373,445.784,101.862Zm22.279,5.045-9.217-10.413,8.5-8.516h-4.524L455,96.05V78.089l-3.763.565V107.23H455V97.14l8.963,10.373ZM487.3,107.23V93.749c0-4.278-2.368-6.175-7.272-6.175a20.316,20.316,0,0,0-7.822,1.614l0.507,3.108a18,18,0,0,1,6.976-1.655c2.326,0,3.848.848,3.848,3.269v0.807c-8.414.848-12.726,2.745-12.726,7.547,0,3.27,2.283,5.368,5.919,5.368a9.717,9.717,0,0,0,7.1-2.986l0.423,2.583H487.3Zm-3.763-5.288a8.733,8.733,0,0,1-6,2.705c-1.9,0-3-1.009-3-2.583,0-1.978,1.565-3.915,9.006-4.6v4.48Zm20-20.14-0.55-3.269c-0.38,0-.845-0.081-1.606-0.081-3.594,0-6.258,1.453-6.258,5.287v4.238h-3.044V91h3.044V107.23H498.8V91h4.524l-0.465-3.027H498.8V84.1c0-1.776,1.057-2.462,2.79-2.462A11.548,11.548,0,0,1,503.532,81.8Zm13.993,0-0.55-3.269c-0.38,0-.845-0.081-1.606-0.081-3.594,0-6.258,1.453-6.258,5.287v4.238h-3.044V91h3.044V107.23h3.679V91h4.524l-0.465-3.027H512.79V84.1c0-1.776,1.057-2.462,2.79-2.462A11.548,11.548,0,0,1,517.525,81.8Zm19.152,25.428V93.749c0-4.278-2.368-6.175-7.272-6.175a20.316,20.316,0,0,0-7.822,1.614L522.09,92.3a18,18,0,0,1,6.976-1.655c2.326,0,3.848.848,3.848,3.269v0.807c-8.414.848-12.726,2.745-12.726,7.547,0,3.27,2.283,5.368,5.919,5.368a9.717,9.717,0,0,0,7.1-2.986l0.423,2.583h3.044Zm-3.763-5.288a8.733,8.733,0,0,1-6,2.705c-1.9,0-3-1.009-3-2.583,0-1.978,1.565-3.915,9.006-4.6v4.48Zm37.414,5.288V78.089l-3.763.565v9.929a14.782,14.782,0,0,0-5.074-.847c-4.9,0-9.132,3.39-9.132,10.413,0,6.457,3.594,9.484,7.949,9.484a8.476,8.476,0,0,0,6.553-3.188l0.465,2.785h3Zm-3.763-6.175c-1.607,2.058-3.382,3.39-5.708,3.39-2.706,0-4.693-2.22-4.693-6.458,0-4.763,2.283-7.225,5.454-7.225a9.89,9.89,0,0,1,4.947,1.09v9.2ZM593.41,97.22c0-5.328-2.706-9.646-8.582-9.646-5.074,0-8.879,3.794-8.879,9.969,0,7.063,4.1,10.09,9.344,10.09a12.935,12.935,0,0,0,8.075-2.583l-0.55-3.229a11.4,11.4,0,0,1-7.229,2.745c-3.51,0-5.75-2.1-5.877-6.579h13.7V97.22Zm-3.8-1.937h-9.724c0.592-3.31,2.579-4.884,4.9-4.884C587.7,90.4,589.14,92.175,589.605,95.283Zm25.873,11.947V93.225c0-3.471-2.029-5.651-5.834-5.651-2.875,0-5.243,1.534-7.146,3.189l-0.465-2.785h-3V107.23h3.763V93.911c1.818-1.857,3.848-3.108,5.835-3.108,2.2,0,3.086,1.332,3.086,3.31V107.23h3.763Zm30.9-5.368c0-3.673-2.241-5.045-7.23-6.256-3.171-.767-4.186-1.493-4.186-2.785,0-1.372,1.184-2.22,3.467-2.22a13.327,13.327,0,0,1,6.131,1.655l0.592-3.39a16.971,16.971,0,0,0-6.638-1.292c-4.4,0-7.1,2.26-7.1,5.328,0,3.431,1.9,4.8,6.638,5.933,3.636,0.848,4.777,1.493,4.777,3.269,0,1.614-1.522,2.543-4.1,2.543a13.013,13.013,0,0,1-7.1-2.22l-0.549,3.39a17.163,17.163,0,0,0,7.356,1.816C643.633,107.633,646.381,105.373,646.381,101.862Zm21.772-4.642c0-5.328-2.706-9.646-8.583-9.646-5.074,0-8.879,3.794-8.879,9.969,0,7.063,4.1,10.09,9.344,10.09a12.935,12.935,0,0,0,8.075-2.583l-0.549-3.229a11.4,11.4,0,0,1-7.23,2.745c-3.509,0-5.75-2.1-5.877-6.579h13.7V97.22Zm-3.805-1.937h-9.725c0.592-3.31,2.579-4.884,4.9-4.884C662.445,90.4,663.882,92.175,664.348,95.283Zm25.873,11.947V93.225c0-3.471-2.03-5.651-5.835-5.651-2.875,0-5.243,1.534-7.145,3.189l-0.465-2.785h-3V107.23h3.763V93.911c1.818-1.857,3.847-3.108,5.834-3.108,2.2,0,3.087,1.332,3.087,3.31V107.23h3.763Zm21.94,0V93.749c0-4.278-2.367-6.175-7.272-6.175a20.315,20.315,0,0,0-7.821,1.614l0.507,3.108a18,18,0,0,1,6.976-1.655c2.326,0,3.848.848,3.848,3.269v0.807c-8.414.848-12.727,2.745-12.727,7.547,0,3.27,2.283,5.368,5.919,5.368a9.715,9.715,0,0,0,7.1-2.986l0.423,2.583h3.044Zm-3.762-5.288a8.737,8.737,0,0,1-6,2.705c-1.9,0-3-1.009-3-2.583,0-1.978,1.564-3.915,9.006-4.6v4.48Zm24.52-.08c0-3.673-2.241-5.045-7.23-6.256-3.171-.767-4.186-1.493-4.186-2.785,0-1.372,1.184-2.22,3.467-2.22a13.327,13.327,0,0,1,6.131,1.655l0.592-3.39a16.971,16.971,0,0,0-6.638-1.292c-4.4,0-7.1,2.26-7.1,5.328,0,3.431,1.9,4.8,6.638,5.933,3.636,0.848,4.777,1.493,4.777,3.269,0,1.614-1.522,2.543-4.1,2.543a13.013,13.013,0,0,1-7.1-2.22l-0.55,3.39a17.167,17.167,0,0,0,7.357,1.816C730.171,107.633,732.919,105.373,732.919,101.862Zm15.134,5.448-0.508-3.067a10.47,10.47,0,0,1-1.733.121c-2.114,0-2.791-.969-2.791-2.543V91h4.862l-0.507-3.027h-4.355V81.036l-3.678.525v6.417H736.3V91h3.044v11.462c0,3.875,2.325,5.086,5.877,5.086A14.613,14.613,0,0,0,748.053,107.31Zm21.561-10.09c0-5.328-2.706-9.646-8.583-9.646-5.074,0-8.879,3.794-8.879,9.969,0,7.063,4.1,10.09,9.344,10.09a12.935,12.935,0,0,0,8.075-2.583l-0.549-3.229a11.4,11.4,0,0,1-7.23,2.745c-3.509,0-5.75-2.1-5.877-6.579h13.7V97.22Zm-3.806-1.937h-9.724c0.592-3.31,2.579-4.884,4.9-4.884C763.906,90.4,765.343,92.175,765.808,95.283Zm35.6-7.305h-3.847l-5.074,14.933L787.241,87.7l-3.763.565,7.145,19.05h3.594Zm20.462,9.243c0-5.328-2.706-9.646-8.583-9.646-5.073,0-8.878,3.794-8.878,9.969,0,7.063,4.1,10.09,9.343,10.09a12.94,12.94,0,0,0,8.076-2.583l-0.55-3.229a11.4,11.4,0,0,1-7.23,2.745c-3.509,0-5.75-2.1-5.877-6.579h13.7V97.22Zm-3.8-1.937h-9.724c0.591-3.31,2.579-4.884,4.9-4.884C816.158,90.4,817.6,92.175,818.061,95.283ZM838.776,91l-0.592-3.431a8.97,8.97,0,0,0-7.061,4.319l-0.634-3.915h-3V107.23h3.763V95.848A9.244,9.244,0,0,1,838.776,91Zm18.39,10.857c0-3.673-2.241-5.045-7.23-6.256-3.171-.767-4.185-1.493-4.185-2.785,0-1.372,1.183-2.22,3.466-2.22a13.327,13.327,0,0,1,6.131,1.655l0.592-3.39a16.967,16.967,0,0,0-6.638-1.292c-4.4,0-7.1,2.26-7.1,5.328,0,3.431,1.9,4.8,6.638,5.933,3.636,0.848,4.778,1.493,4.778,3.269,0,1.614-1.522,2.543-4.1,2.543a13.013,13.013,0,0,1-7.1-2.22l-0.549,3.39a17.163,17.163,0,0,0,7.356,1.816C854.418,107.633,857.166,105.373,857.166,101.862Zm10.018-20.019a2.346,2.346,0,0,0-2.368-2.3,2.384,2.384,0,0,0-2.41,2.3,2.35,2.35,0,0,0,2.41,2.26A2.312,2.312,0,0,0,867.184,81.843Zm-0.507,25.387V87.978h-3.763V107.23h3.763Zm24.563-9.606c0-6.337-3.974-10.05-9.386-10.05-5.369,0-9.259,3.713-9.259,10.05s3.89,10.009,9.259,10.009C887.266,107.633,891.24,103.961,891.24,97.624Zm-3.805,0c0,4.036-1.86,7.023-5.581,7.023-3.551,0-5.454-3.068-5.454-7.023,0-4.036,1.818-7.023,5.454-7.023S887.435,93.669,887.435,97.624Zm25.873,9.606V93.225c0-3.471-2.03-5.651-5.835-5.651-2.875,0-5.242,1.534-7.145,3.189l-0.465-2.785h-3V107.23h3.763V93.911c1.818-1.857,3.847-3.108,5.835-3.108,2.2,0,3.086,1.332,3.086,3.31V107.23h3.763Zm23-10.01c0-5.328-2.706-9.646-8.583-9.646-5.074,0-8.879,3.794-8.879,9.969,0,7.063,4.1,10.09,9.344,10.09a12.94,12.94,0,0,0,8.076-2.583l-0.55-3.229a11.4,11.4,0,0,1-7.23,2.745c-3.509,0-5.75-2.1-5.877-6.579h13.7V97.22ZM932.5,95.283h-9.725c0.592-3.31,2.579-4.884,4.905-4.884C930.6,90.4,932.036,92.175,932.5,95.283Zm25.873,11.947V93.225c0-3.471-2.03-5.651-5.835-5.651-2.875,0-5.243,1.534-7.145,3.189l-0.465-2.785h-3V107.23h3.763V93.911c1.818-1.857,3.847-3.108,5.834-3.108,2.2,0,3.087,1.332,3.087,3.31V107.23h3.763Zm10.61,0v-4.8H964.8v4.8h4.186Z"/>
  <path id="Du_använder_en_gammal_version_av_SweClockers_Dark_Besök_forumtr_copy_2" data-name="Du använder en gammal version av SweClockers Dark Besök forumtr copy 2" class="cls-2" d="M758.415,56.621l-0.592-3.592a14.327,14.327,0,0,1-8.2,2.785c-5.877,0-9.429-4.238-9.429-10.938S743.7,33.9,749.621,33.9a12.876,12.876,0,0,1,7.737,2.7l0.592-3.875a14.527,14.527,0,0,0-8.287-2.3c-8.2,0-13.572,5.852-13.572,14.49,0,8.6,5.285,14.409,13.487,14.409A15.892,15.892,0,0,0,758.415,56.621ZM768.56,58.8V29.66l-3.763.565V58.8h3.763ZM793.123,49.2c0-6.337-3.974-10.05-9.386-10.05-5.369,0-9.259,3.713-9.259,10.05s3.89,10.01,9.259,10.01C789.149,59.2,793.123,55.532,793.123,49.2Zm-3.805,0c0,4.036-1.86,7.023-5.581,7.023-3.551,0-5.454-3.067-5.454-7.023,0-4.036,1.818-7.023,5.454-7.023S789.318,45.24,789.318,49.2Zm24.562,7.951-0.549-3.229a8.515,8.515,0,0,1-5.877,2.139c-3.552,0-6.046-2.22-6.046-6.9,0-4.48,2.325-6.861,5.623-6.861a9.387,9.387,0,0,1,6.088,2.139l0.55-3.511a11.312,11.312,0,0,0-6.6-1.776c-5.242,0-9.47,3.471-9.47,10.05,0,6.417,3.974,10.01,9.386,10.01A10.99,10.99,0,0,0,813.88,57.146Zm22.364,1.332-9.217-10.413,8.5-8.516H831l-7.822,8.072V29.66l-3.763.565V58.8h3.763V48.711l8.963,10.373Zm19.532-9.687c0-5.328-2.706-9.646-8.583-9.646-5.074,0-8.879,3.794-8.879,9.969,0,7.063,4.1,10.09,9.344,10.09a12.939,12.939,0,0,0,8.075-2.583l-0.549-3.229a11.4,11.4,0,0,1-7.23,2.744c-3.509,0-5.75-2.1-5.877-6.579h13.7V48.791Zm-3.806-1.937h-9.724c0.592-3.31,2.579-4.884,4.9-4.884C850.068,41.97,851.505,43.746,851.97,46.854Zm20.715-4.278-0.592-3.431a8.968,8.968,0,0,0-7.06,4.319L864.4,39.549h-3V58.8h3.763V47.419A9.241,9.241,0,0,1,872.685,42.576Zm18.391,10.857c0-3.673-2.241-5.045-7.23-6.256-3.171-.767-4.186-1.493-4.186-2.785,0-1.372,1.184-2.22,3.467-2.22a13.328,13.328,0,0,1,6.131,1.655l0.591-3.39a16.964,16.964,0,0,0-6.637-1.291c-4.4,0-7.1,2.26-7.1,5.328,0,3.431,1.9,4.8,6.637,5.933,3.637,0.847,4.778,1.493,4.778,3.269,0,1.614-1.522,2.543-4.1,2.543a13.012,13.012,0,0,1-7.1-2.22l-0.55,3.39a17.163,17.163,0,0,0,7.357,1.816C888.327,59.2,891.076,56.944,891.076,53.433Z"/>
  <path id="Du_använder_en_gammal_version_av_SweClockers_Dark_Besök_forumtr_copy" data-name="Du använder en gammal version av SweClockers Dark Besök forumtr copy" class="cls-3" d="M678.64,51.294c0-4.2-1.945-6.054-7.611-8.516-4.439-1.937-5.538-2.946-5.538-5.086,0-2.058,1.479-3.754,4.82-3.754A10.655,10.655,0,0,1,676.441,36l0.634-3.794a13.39,13.39,0,0,0-6.638-1.574c-5.285,0-8.878,2.866-8.878,7.346,0,4,2.071,5.731,7.568,8.113,4.4,1.9,5.581,2.946,5.581,5.489,0,2.7-2.157,4.238-5.2,4.238a14.8,14.8,0,0,1-7.652-2.381l-0.592,3.875a18.3,18.3,0,0,0,8.16,1.816C674.877,59.124,678.64,56.1,678.64,51.294Zm31.835-11.745H706.8l-4.312,13.965L698,39.549h-3.171l-4.482,13.965L685.91,39.266l-3.594.565,6.511,18.97h2.918l4.608-14.57L701,58.8h2.959ZM731.1,48.791c0-5.328-2.706-9.646-8.583-9.646-5.073,0-8.878,3.794-8.878,9.969,0,7.063,4.1,10.09,9.344,10.09a12.939,12.939,0,0,0,8.075-2.583l-0.55-3.229a11.4,11.4,0,0,1-7.23,2.744c-3.509,0-5.75-2.1-5.876-6.579h13.7V48.791ZM727.3,46.854h-9.724c0.592-3.31,2.579-4.884,4.9-4.884C725.4,41.97,726.834,43.746,727.3,46.854Zm203.727-2.018c0-8.153-5.2-13.884-15.347-13.884h-8.456V58.8h8.287C925.53,58.8,931.026,53.11,931.026,44.836Zm-4.1.04c0,7.1-4.228,10.494-11.246,10.494H911.2V34.383h4.609C922.486,34.383,926.925,37.894,926.925,44.876Zm25.2,13.925V45.32c0-4.278-2.367-6.175-7.272-6.175a20.32,20.32,0,0,0-7.822,1.614l0.508,3.108a17.994,17.994,0,0,1,6.976-1.655c2.325,0,3.847.848,3.847,3.269v0.807c-8.413.848-12.726,2.745-12.726,7.547,0,3.269,2.283,5.368,5.919,5.368a9.715,9.715,0,0,0,7.1-2.987l0.423,2.583h3.044Zm-3.763-5.287a8.733,8.733,0,0,1-6,2.7c-1.9,0-3-1.009-3-2.583,0-1.978,1.564-3.915,9-4.6v4.48Zm21.73-10.938L969.5,39.145a8.97,8.97,0,0,0-7.061,4.319L961.8,39.549h-3V58.8h3.763V47.419A9.244,9.244,0,0,1,970.088,42.576Zm21.518,15.9L982.39,48.065l8.5-8.516h-4.524l-7.822,8.072V29.66l-3.763.565V58.8h3.763V48.711l8.963,10.373Z"/>
</svg>
